<svg width="37" height="37" viewBox="0 0 37 37" fill="none" xmlns="http://www.w3.org/2000/svg"><path d="M20.668 0H19.584V17.416H37V16.332C37 7.36589 29.6341 0 20.668 0ZM5.64279 32.89C8.50407 35.3957 12.2385 37 16.332 37C25.2982 37 32.5918 29.6341 32.5918 20.668V19.584H18.9488L5.64279 32.89ZM17.416 4.4082H16.332C12.7922 4.4082 9.52302 5.5578 6.85049 7.48563L17.416 18.0512V4.4082ZM5.17248 8.87328C2.03962 11.8389 0 16.0235 0 20.668C0 24.7615 1.6043 28.4959 4.10996 31.3572L15.8832 19.584L5.17248 8.87328Z" fill="white"></path></svg>