<svg width="37" height="37" viewBox="0 0 37 37" fill="none" xmlns="http://www.w3.org/2000/svg"><path d="M23.3999 34.8114C23.0915 34.8883 22.7808 34.9557 22.4683 35.0133C21.6552 35.1645 21.1177 35.9465 21.2681 36.7602C21.3391 37.145 21.5582 37.4867 21.8784 37.7117C22.0415 37.8269 22.226 37.9082 22.4211 37.9509C22.6162 37.9935 22.8178 37.9966 23.0141 37.96C23.3864 37.8909 23.7566 37.8105 24.124 37.719C24.9269 37.5192 25.416 36.7058 25.2157 35.9034C25.0159 35.1002 24.2033 34.6115 23.3999 34.8114ZM34.4798 14.7288C34.5803 15.0332 34.7761 15.2972 35.0382 15.4817C35.4135 15.746 35.9045 15.835 36.3731 15.68C37.1587 15.4191 37.5844 14.572 37.3245 13.7868C37.2054 13.4273 37.0755 13.0716 36.9347 12.7201C36.6274 11.9518 35.7559 11.5777 34.9872 11.885C34.2192 12.1922 33.845 13.064 34.1526 13.8325C34.2708 14.1279 34.3799 14.4268 34.4798 14.7288ZM28.2686 32.6722C28.0031 32.8476 27.7323 33.0149 27.4567 33.1739C26.7397 33.5874 26.4941 34.5039 26.9075 35.2205C27.0159 35.4088 27.1639 35.5713 27.3414 35.6966C27.8036 36.0218 28.4314 36.0705 28.954 35.7694C29.2821 35.5802 29.6043 35.3811 29.9203 35.1724C30.6105 34.7164 30.8004 33.7868 30.3442 33.0964C29.8881 32.4057 28.9589 32.216 28.2686 32.6722ZM38.2561 18.9134C38.2235 18.0865 37.5269 17.4428 36.6997 17.4751C35.8736 17.5077 35.2294 18.2045 35.2619 19.0311C35.2743 19.3472 35.2775 19.668 35.2702 19.9837C35.2586 20.5023 35.5122 20.9646 35.9064 21.2424C36.1494 21.4137 36.438 21.5086 36.7352 21.5149C37.5622 21.5333 38.2475 20.8773 38.2659 20.05C38.2741 19.6727 38.271 19.2905 38.2561 18.9134ZM34.2353 28.7307C33.5721 28.2332 32.634 28.3683 32.1373 29.0302C31.9464 29.2845 31.7478 29.5329 31.5417 29.7751C31.0058 30.4049 31.0815 31.3507 31.7112 31.8871C31.7471 31.9175 31.7834 31.9455 31.821 31.9718C32.4471 32.4131 33.3171 32.3117 33.8233 31.7177C34.0693 31.4286 34.3064 31.1319 34.5343 30.8283C35.031 30.1663 34.8965 29.2275 34.2353 28.7307ZM36.4377 23.3146C35.6481 23.067 34.8073 23.5065 34.5599 24.2961C34.4646 24.5997 34.3603 24.9003 34.247 25.1977C33.9982 25.8511 34.2365 26.5701 34.7829 26.9553C34.8853 27.0275 34.9964 27.0864 35.1135 27.1308C35.8866 27.4258 36.7522 27.0379 37.0469 26.2646C37.1815 25.9109 37.3056 25.5534 37.4191 25.1924C37.6663 24.4027 37.2271 23.5621 36.4377 23.3146ZM16.863 35.0268C15.5342 34.7891 14.2422 34.3785 13.02 33.8055C13.0056 33.798 12.9927 33.7894 12.9775 33.7825C12.6895 33.6471 12.4055 33.5033 12.1259 33.3513C12.1249 33.3502 12.1232 33.3495 12.1216 33.3488C11.608 33.0659 11.1104 32.7549 10.631 32.4172C3.58294 27.4524 1.88831 17.6791 6.85347 10.6311C7.93313 9.09912 9.23967 7.82102 10.6963 6.80802C10.7142 6.79552 10.7322 6.7831 10.75 6.77053C15.8828 3.23385 22.8524 2.9955 28.3027 6.62976L27.1321 8.32111C26.8067 8.79188 27.0069 9.13494 27.5766 9.08366L32.6614 8.62844C33.2318 8.57716 33.5729 8.08372 33.4195 7.53284L32.0541 2.61318C31.9012 2.06166 31.5098 1.99564 31.1841 2.46633L30.0108 4.16168C26.011 1.47672 21.2137 0.452909 16.4521 1.27859C15.9755 1.3613 15.5022 1.46232 15.0333 1.58144C15.0297 1.58208 15.0268 1.58248 15.024 1.58312C15.0059 1.58752 14.9877 1.59337 14.9701 1.59826C10.8641 2.65268 7.2817 5.04745 4.72541 8.46428C4.70385 8.48984 4.68166 8.51483 4.66131 8.54263C4.57591 8.65785 4.49191 8.77411 4.40934 8.89138C4.27373 9.08399 4.14183 9.27919 4.01373 9.47688C3.99778 9.50059 3.98561 9.52471 3.97167 9.54866C1.86219 12.8175 0.844703 16.5966 1.0192 20.444C1.0196 20.4567 1.01888 20.4694 1.0192 20.4824C1.03651 20.8605 1.06558 21.238 1.10636 21.6143C1.10853 21.6385 1.1139 21.6615 1.11798 21.6857C1.15964 22.065 1.21302 22.4429 1.27806 22.8189C1.94655 26.6756 3.76585 30.146 6.49198 32.8463C6.49831 32.8527 6.50488 32.8596 6.51129 32.8661C6.51353 32.8686 6.51602 32.8699 6.51818 32.8722C7.25759 33.6017 8.05594 34.2688 8.9051 34.867C11.15 36.4488 13.6497 37.4944 16.3343 37.9761C17.1488 38.1225 17.9269 37.5803 18.073 36.7661C18.2191 35.9514 17.6773 35.1727 16.863 35.0268Z" fill="white" stroke="white" stroke-width="0.2"></path><path d="M18.7166 7.53125C18.0466 7.53125 17.5039 8.07444 17.5039 8.7435V20.8209L28.5496 26.5309C28.7212 26.6199 28.9117 26.6664 29.1051 26.6663C29.5438 26.6663 29.9675 26.4274 30.183 26.0105C30.4902 25.4156 30.2577 24.6847 29.6628 24.3774L19.928 19.3446V8.7435C19.9279 8.07444 19.3859 7.53125 18.7166 7.53125Z" fill="white" stroke="white" stroke-width="0.2"></path></svg>