<svg width="32" height="32" viewBox="0 0 38 38" fill="none" xmlns="http://www.w3.org/2000/svg"><path d="M6.65 10.7197C7.73484 9.11387 9.11387 7.73484 10.7197 6.65613L6.07387 2.01032L8.08419 0H0V8.09032L2.01032 6.08L6.65 10.7197ZM29.9097 0L31.92 2.01032L27.2803 6.65613C28.8858 7.73653 30.2659 9.11873 31.3439 10.7258L35.9897 6.08L38 8.09032V0H29.9097ZM31.3439 27.2803C30.2659 28.8874 28.8858 30.2696 27.2803 31.35L31.92 35.9897L29.9097 38H38V29.9158L35.9897 31.9261L31.3439 27.2803ZM6.65 27.2865L2.01032 31.9261L0 29.9158V38H8.08419L6.07387 35.9897L10.7197 31.35C9.11397 30.2703 7.73207 28.8905 6.65 27.2865ZM19 10.1987C14.1458 10.1987 10.1987 14.1458 10.1987 19C10.1987 23.8542 14.1458 27.8013 19 27.8013C23.8542 27.8013 27.8013 23.8542 27.8013 19C27.8013 14.1458 23.8542 10.1987 19 10.1987ZM13.7413 19.9929H12.5155C12.1784 19.9929 11.9026 19.7171 11.9026 19.38C11.9026 19.0429 12.1784 18.7671 12.5155 18.7671H13.7413C14.0784 18.7671 14.3542 19.0429 14.3542 19.38C14.3542 19.7171 14.0845 19.9929 13.7413 19.9929ZM19 18.3871C19.77 18.3887 20.508 18.6953 21.0525 19.2398C21.5969 19.7843 21.9035 20.5223 21.9052 21.2923C21.9036 21.9557 21.6755 22.5986 21.2586 23.1147C20.8417 23.6307 20.2611 23.9889 19.6129 24.13V24.7735C19.6129 25.1106 19.3371 25.3865 19 25.3865C18.6629 25.3865 18.3871 25.1106 18.3871 24.7735V24.13C17.7389 23.9889 17.1583 23.6307 16.7414 23.1147C16.3245 22.5986 16.0964 21.9557 16.0948 21.2923C16.0948 20.9552 16.3706 20.6794 16.7077 20.6794C17.0448 20.6794 17.3206 20.9552 17.3206 21.2923C17.3206 22.2177 18.0745 22.9716 19 22.9716C19.9255 22.9716 20.6794 22.2177 20.6794 21.2923C20.6794 20.3668 19.9255 19.6129 19 19.6129C18.23 19.6113 17.492 19.3047 16.9475 18.7602C16.4031 18.2157 16.0965 17.4777 16.0948 16.7077C16.0964 16.0443 16.3245 15.4014 16.7414 14.8853C17.1583 14.3693 17.7389 14.0111 18.3871 13.87V13.2265C18.3871 12.8894 18.6629 12.6135 19 12.6135C19.3371 12.6135 19.6129 12.8894 19.6129 13.2265V13.87C20.2611 14.0111 20.8417 14.3693 21.2586 14.8853C21.6755 15.4014 21.9036 16.0443 21.9052 16.7077C21.9052 17.0448 21.6294 17.3206 21.2923 17.3206C20.9552 17.3206 20.6794 17.0448 20.6794 16.7077C20.6794 15.7823 19.9255 15.0284 19 15.0284C18.0745 15.0284 17.3206 15.7823 17.3206 16.7077C17.3206 17.6394 18.0745 18.3871 19 18.3871ZM25.4784 19.9929H24.2526C23.9155 19.9929 23.6397 19.7171 23.6397 19.38C23.6397 19.0429 23.9155 18.7671 24.2526 18.7671H25.4784C25.8155 18.7671 26.0913 19.0429 26.0913 19.38C26.0913 19.7171 25.8155 19.9929 25.4784 19.9929Z" fill="white"></path></svg>