<svg width="33" height="33" viewBox="0 0 45 37" fill="none" xmlns="http://www.w3.org/2000/svg"><path fill-rule="evenodd" clip-rule="evenodd" d="M35.8135 16.6558H31.9939C31.5751 13.5805 30.1194 10.7402 27.8674 8.60441L30.3646 5.77151C33.4287 8.62779 35.3628 12.4912 35.8135 16.6558ZM24.2101 11.4443C24.1646 11.4084 24.1186 11.3731 24.0722 11.3383L23.1757 12.352C23.0853 12.4559 23.0393 12.5913 23.0477 12.7288C23.0561 12.8663 23.1182 12.995 23.2206 13.0872C23.3174 13.1708 23.4408 13.217 23.5686 13.2174C23.6423 13.2174 23.7151 13.2017 23.7822 13.1713C23.8493 13.1408 23.909 13.0964 23.9575 13.041L24.85 12.0281C24.81 11.9861 24.7695 11.9447 24.7285 11.9039C24.5644 11.7412 24.3915 11.5878 24.2104 11.4443H24.2101ZM24.7292 25.0979C24.7701 25.0567 24.8104 25.0149 24.85 24.9724L23.9577 23.9597C23.8664 23.856 23.7377 23.7929 23.5999 23.7841C23.462 23.7753 23.3264 23.8216 23.2227 23.9129C23.119 24.0042 23.0558 24.1329 23.047 24.2707C23.0382 24.4086 23.0846 24.5443 23.1758 24.6479L24.0724 25.662C24.1192 25.6278 24.1655 25.5928 24.2112 25.5571C24.3934 25.4152 24.5664 25.2618 24.7292 25.098L24.7292 25.0979ZM20.2937 4.95719C22.7888 5.29591 25.1411 6.31979 27.0892 7.91507L29.5867 5.08208C26.9481 2.87601 23.7137 1.50332 20.2937 1.13813V4.95719ZM31.9939 20.3445H35.8135C35.3629 24.509 33.4287 28.3723 30.3646 31.2284L27.8674 28.3954C30.1195 26.2599 31.5753 23.4197 31.9939 20.3445ZM20.2937 35.862C23.7137 35.497 26.9482 34.1243 29.5867 31.9181L27.0894 29.0852C25.1413 30.6804 22.789 31.7043 20.294 32.043V35.8616L20.2937 35.862ZM39.7842 2.8763C39.9123 3.44134 40.2441 3.93936 40.7162 4.27516C41.1884 4.61096 41.7677 4.76097 42.3435 4.69654C42.9193 4.6321 43.4511 4.35772 43.8373 3.92586C44.2235 3.494 44.4371 2.93495 44.4371 2.35558C44.4371 1.77621 44.2235 1.21715 43.8373 0.785293C43.4511 0.353432 42.9193 0.0790578 42.3435 0.01462C41.7677 -0.0498178 41.1884 0.100201 40.7162 0.435999C40.2441 0.771796 39.9123 1.26982 39.7842 1.83486H32.6817C32.6081 1.83504 32.5354 1.85086 32.4683 1.88128C32.4013 1.91169 32.3414 1.95601 32.2928 2.01129L30.2909 4.28381C27.3263 1.81368 23.6629 0.333198 19.8145 0.0499083C19.743 0.0447726 19.6712 0.054377 19.6036 0.0781264C19.536 0.101876 19.4739 0.139264 19.4214 0.187972C19.3688 0.23668 19.3268 0.29567 19.2979 0.361285C19.2691 0.4269 19.254 0.497741 19.2537 0.569415V5.42081C19.2541 5.55014 19.3024 5.67473 19.3894 5.77046C19.4763 5.86619 19.5957 5.92625 19.7244 5.93901C22.1708 6.18477 24.4912 7.14367 26.3974 8.69667L24.7599 10.5573C23.2657 9.36933 21.4667 8.6269 19.5696 8.41528C17.6724 8.20366 15.7541 8.53144 14.0348 9.36095C12.3156 10.1905 10.8652 11.4881 9.85017 13.1048C8.83517 14.7215 8.29676 16.5917 8.29676 18.5006C8.29676 20.4095 8.83517 22.2797 9.85017 23.8964C10.8652 25.513 12.3156 26.8107 14.0348 27.6402C15.7541 28.4697 17.6724 28.7975 19.5696 28.5858C21.4667 28.3742 23.2657 27.6318 24.7599 26.4438L26.3974 28.3049C24.4913 29.8579 22.1708 30.8167 19.7244 31.0621C19.5958 31.0749 19.4764 31.1349 19.3895 31.2305C19.3025 31.3262 19.2541 31.4507 19.2537 31.58V36.4314C19.2539 36.5031 19.269 36.5741 19.2978 36.6398C19.3267 36.7055 19.3688 36.7645 19.4215 36.8132C19.5169 36.9027 19.6428 36.9524 19.7735 36.9521C19.7859 36.9521 19.7981 36.9521 19.8145 36.9512C23.663 36.6675 27.3262 35.1868 30.2909 32.7165L32.2928 34.9886C32.3414 35.0439 32.4013 35.0882 32.4683 35.1186C32.5354 35.1491 32.6081 35.1649 32.6817 35.1651H39.7842C39.9123 35.7301 40.2441 36.2282 40.7163 36.564C41.1884 36.8998 41.7678 37.0498 42.3436 36.9854C42.9194 36.9209 43.4512 36.6466 43.8375 36.2147C44.2237 35.7828 44.4372 35.2237 44.4372 34.6443C44.4372 34.0649 44.2237 33.5059 43.8375 33.074C43.4512 32.6421 42.9194 32.3677 42.3436 32.3033C41.7678 32.2389 41.1884 32.3889 40.7163 32.7247C40.2441 33.0605 39.9123 33.5586 39.7842 34.1236H32.9193L31.069 32.0268C31.2255 31.8809 31.3797 31.7326 31.5315 31.5818C34.671 28.4466 36.5776 24.2865 36.9029 19.8616C36.9073 19.7902 36.8973 19.7186 36.8735 19.6512C36.8496 19.5837 36.8124 19.5218 36.764 19.469C36.7153 19.4167 36.6564 19.375 36.591 19.3464C36.5255 19.3178 36.4548 19.303 36.3834 19.3028H31.532C31.4031 19.3028 31.2788 19.3508 31.1834 19.4374C31.088 19.5241 31.0284 19.6432 31.0161 19.7715C30.7131 22.7596 29.3527 25.5411 27.1801 27.6148L25.5385 25.7534C26.5075 24.8101 27.2778 23.6823 27.8037 22.4365C28.3297 21.1906 28.6007 19.852 28.6007 18.4997C28.6007 17.1474 28.3297 15.8088 27.8037 14.5629C27.2778 13.3171 26.5075 12.1892 25.5385 11.246L27.1801 9.38498C29.3526 11.4586 30.7129 14.24 31.0161 17.2279C31.0283 17.3563 31.0879 17.4755 31.1833 17.5623C31.2787 17.6491 31.403 17.6971 31.532 17.6971H36.3834C36.4548 17.697 36.5255 17.6821 36.591 17.6536C36.6564 17.625 36.7153 17.5832 36.764 17.5309C36.8124 17.4782 36.8496 17.4162 36.8735 17.3487C36.8973 17.2813 36.9073 17.2097 36.9029 17.1383C36.5777 12.7135 34.6712 8.55351 31.5318 5.41847C31.38 5.2675 31.2258 5.11899 31.0692 4.97299L32.9193 2.8763H39.7842ZM0.520534 17.6973C0.449083 17.6971 0.378422 17.6823 0.312941 17.6537C0.247459 17.6251 0.188555 17.5834 0.139886 17.5311C0.0915282 17.4783 0.0543078 17.4163 0.0304493 17.3488C0.00659075 17.2813 -0.00341614 17.2097 0.00102672 17.1383C0.329018 12.7151 2.23456 8.55674 5.37072 5.42037C8.50688 2.28401 12.6651 0.378191 17.0883 0.0499083C17.1598 0.0447601 17.2316 0.0543552 17.2992 0.0780989C17.3668 0.101843 17.4289 0.139228 17.4815 0.187938C17.534 0.236648 17.5761 0.295642 17.6049 0.361263C17.6338 0.426885 17.6488 0.497733 17.6492 0.569415V5.42081C17.6488 5.55015 17.6004 5.67474 17.5134 5.77046C17.4264 5.86619 17.3071 5.92625 17.1783 5.93901C14.2858 6.23598 11.584 7.52085 9.52815 9.57714C7.47228 11.6334 6.18798 14.3355 5.89161 17.2281C5.87789 17.3566 5.81727 17.4755 5.72136 17.562C5.62544 17.6486 5.50096 17.6968 5.37175 17.6973H0.520534ZM5.37193 31.5815C2.2342 28.4453 0.328055 24.2859 0.00102672 19.8616C-0.00339244 19.7902 0.0066261 19.7187 0.030484 19.6512C0.054342 19.5837 0.09155 19.5218 0.139886 19.469C0.188565 19.4167 0.247483 19.3749 0.312981 19.3464C0.378478 19.3178 0.449155 19.3029 0.520621 19.3028H5.37201C5.50122 19.3033 5.6257 19.3515 5.72162 19.438C5.81753 19.5246 5.87815 19.6435 5.89187 19.772C6.18811 22.6646 7.47233 25.3668 9.52816 27.4232C11.584 29.4796 14.2858 30.7645 17.1783 31.0616C17.307 31.0744 17.4263 31.1344 17.5133 31.23C17.6003 31.3257 17.6487 31.4502 17.6492 31.5795V36.4308C17.6489 36.5026 17.6339 36.5735 17.605 36.6392C17.5761 36.7049 17.534 36.764 17.4813 36.8127C17.386 36.9022 17.26 36.9519 17.1292 36.9516C17.1169 36.9516 17.1006 36.9516 17.0883 36.9507C12.6651 36.6246 8.50671 34.7188 5.37201 31.5813L5.37193 31.5815ZM17.9312 17.928C16.8382 17.7111 16.0153 16.8258 16.0153 15.7698C16.0153 14.7138 16.8382 13.8293 17.9312 13.6124V17.928ZM14.9755 15.7698C14.9755 14.1433 16.261 12.7915 17.9312 12.5562V11.3681C17.9312 11.2302 17.986 11.0979 18.0835 11.0004C18.181 10.9029 18.3133 10.8481 18.4512 10.8481C18.5891 10.8481 18.7213 10.9029 18.8188 11.0004C18.9163 11.0979 18.9711 11.2302 18.9711 11.3681V12.5559C20.6414 12.7913 21.9268 14.1431 21.9268 15.7696C21.9277 15.8384 21.9149 15.9067 21.8892 15.9706C21.8635 16.0344 21.8253 16.0925 21.7769 16.1415C21.7286 16.1905 21.671 16.2294 21.6074 16.256C21.5439 16.2825 21.4758 16.2962 21.4069 16.2962C21.3381 16.2962 21.2699 16.2825 21.2064 16.256C21.1429 16.2294 21.0853 16.1905 21.0369 16.1415C20.9885 16.0925 20.9504 16.0344 20.9246 15.9706C20.8989 15.9067 20.8861 15.8384 20.887 15.7696C20.887 14.7137 20.0642 13.8291 18.9711 13.6121V18.0154C20.6414 18.2512 21.9268 19.6026 21.9268 21.2295C21.9268 22.8564 20.6414 24.2073 18.9711 24.4436V25.6316C18.9711 25.7695 18.9163 25.9017 18.8188 25.9992C18.7213 26.0968 18.5891 26.1515 18.4512 26.1515C18.3133 26.1515 18.181 26.0968 18.0835 25.9992C17.986 25.9017 17.9312 25.7695 17.9312 25.6316V24.4439C16.261 24.2077 14.9755 22.8568 14.9755 21.2298C14.9746 21.161 14.9874 21.0927 15.0131 21.0288C15.0389 20.965 15.077 20.9068 15.1254 20.8579C15.1738 20.8089 15.2314 20.77 15.2949 20.7434C15.3584 20.7169 15.4266 20.7032 15.4954 20.7032C15.5643 20.7032 15.6324 20.7169 15.6959 20.7434C15.7595 20.77 15.8171 20.8089 15.8654 20.8579C15.9138 20.9068 15.952 20.965 15.9777 21.0288C16.0034 21.0927 16.0162 21.161 16.0153 21.2298C16.0153 22.2856 16.8382 23.1707 17.9312 23.3877V18.9843C16.261 18.7485 14.9755 17.3972 14.9755 15.7699V15.7698ZM18.9711 23.3876V19.072C20.0646 19.2889 20.887 20.1736 20.887 21.2298C20.887 22.286 20.0645 23.1707 18.9715 23.3877L18.9711 23.3876Z" fill="white"></path></svg>